<?xml version="1.0" encoding="UTF-8"?>
<svg version="1.1" xmlns="http://www.w3.org/2000/svg" width="500" height="500">
<path d="M0 0 C165 0 330 0 500 0 C500 165 500 330 500 500 C335 500 170 500 0 500 C0 335 0 170 0 0 Z " fill="#FEFEFE" transform="translate(0,0)"/>
<path d="M0 0 C15.48280627 -0.0697792 30.96558922 -0.12315261 46.44851589 -0.15543652 C53.63931608 -0.17083236 60.83001611 -0.1917804 68.02075195 -0.22631836 C74.29633807 -0.25644609 80.57185157 -0.27562774 86.84750801 -0.28226548 C90.16306893 -0.28613871 93.4783767 -0.29671844 96.79388237 -0.31719017 C110.86391313 -0.4005421 124.25673327 -0.24960162 138 3 C139.02375732 3.23704147 140.04751465 3.47408295 141.10229492 3.7183075 C143.57008359 4.31194797 146.00116286 4.9763005 148.4375 5.6875 C149.31164551 5.94168701 150.18579102 6.19587402 151.08642578 6.45776367 C171.39372434 12.59551331 189.42679085 22.63090496 205 37 C205.969375 37.886875 206.93875 38.77375 207.9375 39.6875 C214.68376805 46.13393392 220.08287801 53.0859619 225 61 C225.37898437 61.60440918 225.75796875 62.20881836 226.1484375 62.83154297 C236.14897104 79.01109745 241.90717641 96.27963315 245 115 C245.1750708 116.05646729 245.3501416 117.11293457 245.53051758 118.20141602 C246.05857658 122.47394336 246.19847352 126.64908874 246.23828125 130.94921875 C246.246353 131.80191849 246.25442474 132.65461823 246.26274109 133.53315735 C246.27651951 135.33759573 246.28726933 137.14205949 246.29516602 138.9465332 C246.30657532 140.75065015 246.32684693 142.55473639 246.35668945 144.35864258 C246.99762595 183.24092985 232.65785057 219.58019101 205.75 247.6875 C184.89526546 267.8599317 158.31657824 279.76444866 130 285 C128.98244629 285.18836426 127.96489258 285.37672852 126.91650391 285.57080078 C116.94516349 287.21077635 107.19357292 287.22963982 97.125 287.125 C88.648125 287.063125 88.648125 287.063125 80 287 C80 270.17 80 253.34 80 236 C84.08375 235.87625 88.1675 235.7525 92.375 235.625 C122.89946853 234.5078721 150.67722433 230.4554175 172.75 207.1875 C189.37308314 187.78404352 193.71880997 162.81875382 193 138 C192.97035156 136.80246094 192.94070313 135.60492188 192.91015625 134.37109375 C191.7916623 110.8281601 183.63269903 88.53089699 166.1875 72.1875 C148.22938829 57.65513249 127.01388173 51.92938522 104.26953125 51.79467773 C103.22473099 51.78477814 102.17993073 51.77487854 101.10346985 51.76467896 C97.67316909 51.73326119 94.24285451 51.70838499 90.8125 51.68359375 C88.42496393 51.66300717 86.03743136 51.64201026 83.64990234 51.62062073 C77.38314666 51.56557604 71.11635904 51.51608948 64.84954834 51.46777344 C58.44784726 51.41742948 52.04619223 51.36181088 45.64453125 51.30664062 C33.09639356 51.19927451 20.54821578 51.09778215 8 51 C8 55.95 8 60.9 8 66 C9.30132874 65.99333817 10.60265747 65.98667633 11.94342041 65.97981262 C24.24235329 65.91884268 36.54125527 65.87395123 48.84030533 65.84456348 C55.16248147 65.82894677 61.48453502 65.80778157 67.80664062 65.77368164 C73.91449936 65.74094567 80.02224062 65.72311698 86.13018036 65.71536827 C88.45362953 65.70985027 90.7770727 65.6990753 93.1004715 65.68280983 C116.38834225 65.52634837 116.38834225 65.52634837 126 69 C127.13695312 69.38800781 128.27390625 69.77601563 129.4453125 70.17578125 C148.89854525 78.42780855 162.82401126 90.8277924 170.875 110.5 C171.62056425 112.65413892 172.3298121 114.82123229 173 117 C173.31839844 118.01707031 173.63679687 119.03414063 173.96484375 120.08203125 C178.03062262 135.57695809 177.69477432 153.70412237 173 169 C172.6596875 170.1653125 172.319375 171.330625 171.96875 172.53125 C166.32790266 190.06361337 154.7276393 203.88630118 138.3984375 212.3515625 C119.39732624 221.56819348 100.72117031 221.39288736 80 221 C80 215.06 80 209.12 80 203 C82.7534375 202.96132813 82.7534375 202.96132813 85.5625 202.921875 C106.65412121 202.49067108 126.89222174 201.35788169 143 186 C155.7053075 171.27513659 158.30949852 152.7962032 157 134 C155.29605584 119.31509939 149.11622748 105.90953173 138 96 C125.53364559 86.52721096 111.40495733 84.87579216 96.25976562 84.79467773 C95.10767609 84.78477814 93.95558655 84.77487854 92.76858521 84.76467896 C88.98116065 84.73322875 85.19372358 84.70837194 81.40625 84.68359375 C78.77209151 84.66300998 76.13793622 84.64201314 73.50378418 84.62062073 C67.29211428 84.57086839 61.08041955 84.52586541 54.86870146 84.48259836 C47.79244236 84.43307597 40.71622776 84.37821388 33.64001179 84.32291877 C19.09338223 84.20936704 4.54670697 84.10317519 -10 84 C-10 67.17 -10 50.34 -10 33 C5.9085335 32.95469541 21.81701511 32.91791955 37.72559452 32.89637566 C45.11371752 32.88610257 52.50179732 32.872119 59.88989258 32.84912109 C66.33612409 32.82906477 72.78232429 32.81625481 79.22858614 32.81182301 C82.63568182 32.80923615 86.04268798 32.80324077 89.44975471 32.78853989 C123.15027127 32.65926687 156.24195447 36.64767818 181.359375 61.328125 C182.23078125 62.20984375 183.1021875 63.0915625 184 64 C184.72703125 64.71671875 185.4540625 65.4334375 186.203125 66.171875 C207.45247237 88.42512854 212.88190174 120.22054447 212.24609375 149.890625 C211.09884456 179.54787259 200.85498584 207.54427931 179.03125 228.2421875 C156.56463021 247.68445462 127.05189467 254.92718813 98 254 C98 258.95 98 263.9 98 269 C132.60196155 266.50023852 169.10244154 259.2873143 193.546875 232.3984375 C195 231 195 231 197 231 C197.25523437 230.43023437 197.51046875 229.86046875 197.7734375 229.2734375 C199.13774355 226.74469189 200.75609745 224.80662728 202.625 222.625 C221.11303415 199.63175897 227.30095001 171.60100856 227.4375 142.75 C227.44716797 141.62028275 227.44716797 141.62028275 227.45703125 140.46774292 C227.57141466 118.60889469 223.11310477 97.44660093 213 78 C212.46503906 76.95972656 211.93007813 75.91945313 211.37890625 74.84765625 C197.26008343 49.08165106 172.56449064 32.72282607 145 24 C140.77577331 22.95405786 136.52646768 22.1146601 132.25 21.3125 C131.16589844 21.10044922 130.08179688 20.88839844 128.96484375 20.66992188 C119.77944028 18.89228274 111.18738041 17.84687813 101.83227539 17.79467773 C100.72909973 17.78477814 99.62592407 17.77487854 98.48931885 17.76467896 C94.85878615 17.73320158 91.2282404 17.70836107 87.59765625 17.68359375 C85.0741696 17.66301234 82.55068631 17.64201556 80.02720642 17.62062073 C74.07403877 17.57114818 68.12084871 17.52585131 62.16763347 17.48259836 C55.38643284 17.43309513 48.60527889 17.37822583 41.8241235 17.32291877 C27.88279236 17.20933292 13.94141568 17.10263391 0 17 C0 11.39 0 5.78 0 0 Z " fill="#030303" transform="translate(74,96)"/>
<path d="M0 0 C5.94 0 11.88 0 18 0 C18 49.17 18 98.34 18 149 C21.63 149 25.26 149 29 149 C28.97003433 148.08677979 28.94006866 147.17355957 28.90919495 146.23266602 C27.95564273 116.06149163 27.87587838 85.90929016 27.93133545 55.72515869 C27.94363201 48.29450513 27.94800114 40.86384269 27.95378876 33.43318176 C27.96331165 22.2887702 27.98253835 11.1444146 28 0 C43.51 0 59.02 0 75 0 C75.17549086 10.77075149 75.34498884 21.54145205 75.5 32.3125 C75.51187725 33.13727341 75.5237545 33.96204681 75.53599167 34.81181335 C75.97033324 65.2916277 76.08818856 95.76731355 76.0625 126.25 C76.06164398 127.27310398 76.06078796 128.29620796 76.05990601 129.35031509 C76.0486163 141.90023083 76.02786387 154.45011071 76 167 C70.06 167 64.12 167 58 167 C57.82814027 152.47922379 57.66123091 137.95839826 57.5 123.4375 C57.48812275 122.36811943 57.4762455 121.29873886 57.46400833 120.19695282 C57.0874865 86.1295405 56.84800758 52.06968572 57 18 C53.37 18 49.74 18 46 18 C46.01252808 18.76053177 46.02505615 19.52106354 46.03796387 20.30464172 C46.20122667 30.30712639 46.35425314 40.30974541 46.5 50.3125 C46.51187725 51.12721519 46.5237545 51.94193039 46.53599167 52.78133392 C46.92783643 79.89659014 47.09055432 107.00699466 47.0625 134.125 C47.06121597 135.37523642 47.06121597 135.37523642 47.05990601 136.65073013 C47.04872527 146.76718843 47.02576344 156.88355711 47 167 C31.49 167 15.98 167 0 167 C0 111.89 0 56.78 0 0 Z " fill="#030303" transform="translate(65,216)"/>
<path d="M0 0 C4.11704694 0.72241198 7.30487372 2.02353711 11 4 C10.38952197 7.98872838 9.12855191 11.0533483 7.26171875 14.62109375 C6.41178345 16.25425537 6.41178345 16.25425537 5.54467773 17.92041016 C4.93180908 19.0810498 4.31894043 20.24168945 3.6875 21.4375 C3.04922357 22.65656191 2.41128829 23.87580249 1.77368164 25.09521484 C-2.56782985 33.37705421 -7.02000584 41.59683117 -11.52856445 49.78881836 C-15.28938188 56.64019004 -18.91315243 63.55616959 -22.5 70.5 C-27.13413989 79.4695261 -31.87561651 88.36987 -36.74414062 97.21435547 C-39.07741269 101.45688129 -41.38370652 105.70768508 -43.609375 110.0078125 C-44.01510742 110.78962891 -44.42083984 111.57144531 -44.83886719 112.37695312 C-45.58565954 113.82280343 -46.32640832 115.27179989 -47.05957031 116.72460938 C-48.96022745 120.40007683 -50.88482885 123.26031823 -54 126 C-53.34 126 -52.68 126 -52 126 C-52 132.93 -52 139.86 -52 147 C-51.01 146.67 -50.02 146.34 -49 146 C-49.33 145.34 -49.66 144.68 -50 144 C-49.1105957 141.82714844 -49.1105957 141.82714844 -47.67578125 139.109375 C-47.14799072 138.10148926 -46.6202002 137.09360352 -46.07641602 136.05517578 C-45.49432373 134.96446777 -44.91223145 133.87375977 -44.3125 132.75 C-43.71816162 131.62190918 -43.12382324 130.49381836 -42.51147461 129.33154297 C-38.28187191 121.33038081 -33.95556011 113.38336146 -29.59301758 105.45410156 C-25.61305177 98.19464393 -21.79159315 90.8593284 -18 83.5 C-13.25546975 74.29136596 -8.39998843 65.15795052 -3.40722656 56.08178711 C1.26447315 47.56927616 5.74525836 38.9616025 10.21875 30.34375 C13.75604807 23.53225867 17.36824016 16.76148228 21 10 C25.23686665 10.89049189 28.30041239 12.79447661 32 15 C31.30255821 18.50947322 29.90943219 21.35736678 28.26171875 24.5234375 C27.69541748 25.61487061 27.12911621 26.70630371 26.5456543 27.83081055 C25.92652244 29.01233959 25.30713091 30.1937326 24.6875 31.375 C24.04652253 32.60386603 23.40565474 33.83278927 22.76489258 35.06176758 C18.51761321 43.18955847 14.17199443 51.26086949 9.75268555 59.29638672 C5.25442078 67.48857614 0.87411544 75.74114105 -3.5 84 C-10.23989591 96.71826481 -17.0308826 109.40537044 -24 122 C-24.41137207 122.74556152 -24.82274414 123.49112305 -25.24658203 124.25927734 C-26.36564051 126.28108263 -27.49300724 128.29791441 -28.625 130.3125 C-29.23601562 131.40175781 -29.84703125 132.49101562 -30.4765625 133.61328125 C-32 136 -32 136 -34 137 C-34.34925543 138.663403 -34.6791936 140.33087683 -35 142 C-38.10442722 149.64647509 -41.71650963 155.65634794 -48 161 C-48.58265625 161.51304687 -49.1653125 162.02609375 -49.765625 162.5546875 C-51.05482013 163.68679583 -52.34949054 164.81268779 -53.6484375 165.93359375 C-56.56006996 168.4921545 -59.40586146 171.11689437 -62.25 173.75 C-62.80478027 174.26216064 -63.35956055 174.77432129 -63.93115234 175.30200195 C-66.69628887 177.85710289 -69.4508298 180.42223637 -72.1875 183.0078125 C-77.79437024 188.27543609 -83.4302782 192.95409212 -90 197 C-91.14845212 197.78786285 -92.29460163 198.5791021 -93.4375 199.375 C-96 201 -96 201 -98 201 C-98.30282164 185.68619755 -97.4970606 170.52060323 -96.40087891 155.24804688 C-96.12106439 151.31974822 -95.85888195 147.39051144 -95.59765625 143.4609375 C-95.42292305 140.96086403 -95.24718067 138.46086084 -95.0703125 135.9609375 C-94.99313995 134.78719574 -94.91596741 133.61345398 -94.8364563 132.40414429 C-94.75652435 131.32766632 -94.67659241 130.25118835 -94.59423828 129.14208984 C-94.52761993 128.19425629 -94.46100159 127.24642273 -94.3923645 126.26986694 C-94 124 -94 124 -92 122 C-91.01 122 -90.02 122 -89 122 C-86.9523118 121.05620955 -84.93390023 120.04792819 -82.9375 119 C-77.20833333 116 -77.20833333 116 -75 116 C-73.44005901 122.98187183 -72.51537952 129.86606248 -72 137 C-70.68 136.67 -69.36 136.34 -68 136 C-69.485 135.01 -69.485 135.01 -71 134 C-63.2775203 118.91786145 -55.55283098 103.84840998 -47.37011719 89.00927734 C-43.64020806 82.22659268 -40.05209237 75.37728782 -36.5 68.5 C-31.96067317 59.71233747 -27.30267508 51.0027124 -22.53491211 42.3371582 C-18.04349763 34.14535892 -13.73040643 25.86485538 -9.45117188 17.56054688 C-6.40029497 11.6482645 -3.27401894 5.79193647 0 0 Z " fill="#FECCAB" transform="translate(418,171)"/>
<path d="M0 0 C2.9909668 1.08227539 2.9909668 1.08227539 5.94921875 2.59765625 C7.04556641 3.15259766 8.14191406 3.70753906 9.27148438 4.27929688 C10.39876953 4.86775391 11.52605469 5.45621094 12.6875 6.0625 C13.79544922 6.62388672 14.90339844 7.18527344 16.04492188 7.76367188 C35.93580854 17.93580854 35.93580854 17.93580854 39 21 C40.18482696 29.80924529 37.7024905 36.23000613 33.8125 44 C32.83976494 46.0207954 31.86710828 48.04162854 30.89453125 50.0625 C30.41580566 51.03832031 29.93708008 52.01414063 29.44384766 53.01953125 C27.20604244 57.63893031 25.09923227 62.31634369 23 67 C19.44940289 66.42421696 16.71890761 65.51139417 13.578125 63.76953125 C12.72895508 63.30272949 11.87978516 62.83592773 11.00488281 62.35498047 C10.09577148 61.84596191 9.18666016 61.33694336 8.25 60.8125 C7.3022168 60.2880127 6.35443359 59.76352539 5.37792969 59.22314453 C3.33480149 58.0906203 1.29352618 56.95474831 -0.74609375 55.81591797 C-4.13878054 53.92255029 -7.53780588 52.04090882 -10.9375 50.16015625 C-13.20869101 48.89908147 -15.47953209 47.63737621 -17.75 46.375 C-18.83893555 45.77147705 -19.92787109 45.1679541 -21.04980469 44.54614258 C-22.56429199 43.69959106 -22.56429199 43.69959106 -24.109375 42.8359375 C-25.45467285 42.08642822 -25.45467285 42.08642822 -26.82714844 41.32177734 C-29 40 -29 40 -31 38 C-30.72340579 33.16406253 -28.18408042 29.05697438 -25.9375 24.875 C-25.5355542 24.12379883 -25.1336084 23.37259766 -24.71948242 22.59863281 C-11.90557985 -0.88974645 -11.90557985 -0.88974645 0 0 Z " fill="#020202" transform="translate(430,117)"/>
<path d="M0 0 C3.77948596 1.48088888 7.3850182 3.15047443 11 5 C10.27934927 8.82440883 8.60483468 11.95709932 6.82421875 15.3984375 C6.50321701 16.02088348 6.18221527 16.64332947 5.85148621 17.28463745 C4.80133412 19.31712996 3.74469371 21.34616239 2.6875 23.375 C1.95385227 24.7899942 1.22029179 26.20503364 0.48681641 27.62011719 C-4.0868732 36.4243941 -8.76758527 45.16357894 -13.55981445 53.85107422 C-17.494221 61.00610862 -21.2606543 68.24138999 -25 75.5 C-29.83971458 84.89207942 -34.73875513 94.24380459 -39.89379883 103.4675293 C-42.07577217 107.38210682 -44.16678892 111.25440515 -45.92578125 115.37890625 C-50.27768635 125.29530675 -55.65313267 129.19015539 -65.3671875 133.65625 C-66.56601562 134.0996875 -67.76484375 134.543125 -69 135 C-69.66 134.67 -70.32 134.34 -71 134 C-64.80319563 121.97747545 -58.58652152 109.97380685 -52.0625 98.125 C-46.95215523 88.83979217 -42.06498108 79.44925083 -37.21118164 70.02783203 C-33.10479741 62.07732955 -28.86958156 54.20928254 -24.55224609 46.37182617 C-19.85268267 37.8060385 -15.36215818 29.13543853 -10.89453125 20.44726562 C-7.35810397 13.57732083 -3.73403593 6.76466798 0 0 Z " fill="#050505" transform="translate(397,158)"/>
<path d="M0 0 C4.11704694 0.72241198 7.30487372 2.02353711 11 4 C10.38952197 7.98872838 9.12855191 11.0533483 7.26171875 14.62109375 C6.41178345 16.25425537 6.41178345 16.25425537 5.54467773 17.92041016 C4.93180908 19.0810498 4.31894043 20.24168945 3.6875 21.4375 C3.04922357 22.65656191 2.41128829 23.87580249 1.77368164 25.09521484 C-2.56782985 33.37705421 -7.02000584 41.59683117 -11.52856445 49.78881836 C-15.28938188 56.64019004 -18.91315243 63.55616959 -22.5 70.5 C-27.13426681 79.46977176 -31.87215598 88.37259426 -36.74633789 97.21435547 C-39.07949762 101.45171358 -41.37684875 105.69820889 -43.57421875 110.0078125 C-43.97543945 110.78962891 -44.37666016 111.57144531 -44.79003906 112.37695312 C-45.52719037 113.82114233 -46.2552214 115.27004345 -46.97167969 116.72460938 C-49.09949155 120.8798054 -51.15515011 123.37547203 -55 126 C-55.55341064 126.38317383 -56.10682129 126.76634766 -56.67700195 127.16113281 C-58.49702919 128.40585701 -60.33787833 129.61227528 -62.1875 130.8125 C-62.81591797 131.23208984 -63.44433594 131.65167969 -64.09179688 132.08398438 C-65.68796248 133.12021167 -67.34063859 134.06831799 -69 135 C-69.66 134.67 -70.32 134.34 -71 134 C-63.2775203 118.91786145 -55.55283098 103.84840998 -47.37011719 89.00927734 C-43.64020806 82.22659268 -40.05209237 75.37728782 -36.5 68.5 C-31.96067317 59.71233747 -27.30267508 51.0027124 -22.53491211 42.3371582 C-18.04349763 34.14535892 -13.73040643 25.86485538 -9.45117188 17.56054688 C-6.40029497 11.6482645 -3.27401894 5.79193647 0 0 Z " fill="#050505" transform="translate(418,171)"/>
<path d="M0 0 C4.23686665 0.89049189 7.30041239 2.79447661 11 5 C10.30255821 8.50947322 8.90943219 11.35736678 7.26171875 14.5234375 C6.41226685 16.16058716 6.41226685 16.16058716 5.5456543 17.83081055 C4.92652244 19.01233959 4.30713091 20.1937326 3.6875 21.375 C3.04652253 22.60386603 2.40565474 23.83278927 1.76489258 25.06176758 C-2.48238679 33.18955847 -6.82800557 41.26086949 -11.24731445 49.29638672 C-15.74557922 57.48857614 -20.12588456 65.74114105 -24.5 74 C-30.40991963 85.15208959 -36.32130018 96.30192036 -42.45703125 107.33203125 C-44.06166661 110.22744118 -45.55941244 113.13266081 -46.94921875 116.13671875 C-51.77008538 126.19737586 -58.86283553 130.90569902 -69 135 C-69.66 134.67 -70.32 134.34 -71 134 C-64.80319563 121.97747545 -58.58652152 109.97380685 -52.0625 98.125 C-47.5801091 89.9807489 -43.25762728 81.76388172 -39 73.5 C-34.25546975 64.29136596 -29.39998843 55.15795052 -24.40722656 46.08178711 C-19.73552685 37.56927616 -15.25474164 28.9616025 -10.78125 20.34375 C-7.24395193 13.53225867 -3.63175984 6.76148228 0 0 Z " fill="#050505" transform="translate(439,181)"/>
<path d="M0 0 C-3.29588215 1.88222667 -6.33989722 2.52639414 -10.0625 3.1875 C-29.57013498 7.2667363 -49.44154537 15.83940695 -64.7734375 28.69921875 C-67 30 -67 30 -69.39453125 30.0234375 C-72.92117648 28.63815856 -75.50882239 26.41413866 -78.3125 23.9375 C-78.86228516 23.46505859 -79.41207031 22.99261719 -79.97851562 22.50585938 C-81.3262696 21.345619 -82.66415117 20.17392776 -84 19 C-83.67 17.68 -83.34 16.36 -83 15 C-80.9140625 14.2578125 -80.9140625 14.2578125 -78 14 C-76.35531271 14.8731056 -74.71287525 15.75815632 -73.14282227 16.75927734 C-70.13051536 18.66042947 -67.41631601 19.90677888 -64 21 C-60.62977435 19.99590519 -58.64684948 18.44235554 -55.90625 16.25390625 C-52.61802261 13.70376216 -49.33424802 12.02123198 -45.5625 10.3125 C-44.92135254 10.02004395 -44.28020508 9.72758789 -43.61962891 9.42626953 C-29.71235787 3.21193198 -15.3165677 -0.75741269 0 0 Z " fill="#0C0C0C" transform="translate(312,374)"/>
<path d="M0 0 C4.3785374 1.75141496 7.97072742 3.62983966 12 6 C10.79216249 9.62351253 9.70346858 10.15215236 6.5625 12.1875 C5.75941406 12.71730469 4.95632813 13.24710937 4.12890625 13.79296875 C2 15 2 15 0 15 C0 10.05 0 5.1 0 0 Z " fill="#0C0B0A" transform="translate(320,357)"/>
<path d="M0 0 C-3.68226271 2.1827846 -7.59810785 2.8558404 -11.75 3.625 C-12.79607422 3.82609375 -12.79607422 3.82609375 -13.86328125 4.03125 C-15.57451932 4.35943264 -17.28713171 4.68043502 -19 5 C-18 2 -18 2 -15.6875 0.8125 C-10.4496854 -0.34159474 -5.34115048 -0.15556749 0 0 Z " fill="#383838" transform="translate(312,374)"/>
</svg>
